<?xml version="1.0" encoding="UTF-8"?>
<svg id="Layer_1" data-name="Layer 1" xmlns="http://www.w3.org/2000/svg" viewBox="0 0 960 480">
  <defs>
    <style>
      .cls-1 {
        fill: #33bff0;
      }

      .cls-1, .cls-2, .cls-3, .cls-4, .cls-5 {
        stroke-width: 0px;
      }

      .cls-2 {
        fill: #0883d9;
      }

      .cls-3 {
        fill: #0370c8;
      }

      .cls-4 {
        fill: #0f5094;
      }

      .cls-5 {
        fill: #0177d7;
      }
    </style>
  </defs>
  <g>
    <path class="cls-3" d="M26.99,234.19c6.37,24.85,19.69,56.51,46.14,91.5,40.73,53.81,93.58,93.67,151.58,127.12,2.08,1.21,4.2,1.59,6.71,1.59v-220.21H26.99Z"/>
    <path class="cls-1" d="M21.77,195.53c-.05,9.46,1.16,22.63,5.21,38.66h204.43V13.88c-20.66,0-38.37,5.5-54.92,15.59-14.72,8.98-28.28,19.69-43.39,28.04-30.07,16.65-62.59,22.54-96.42,22.63-10.86.05-15.01,4.15-15.01,14.91-.05,33.49.34,66.98.1,100.48Z"/>
    <path class="cls-4" d="M435.84,234.19c-6.37,24.85-19.69,56.51-46.14,91.5-40.73,53.81-93.58,93.67-151.58,127.12-2.08,1.21-4.3,1.59-6.71,1.59v-220.21h204.43Z"/>
    <path class="cls-2" d="M441.06,195.53c.05,9.46-1.16,22.63-5.21,38.66h-204.43V13.88c20.56,0,38.37,5.5,54.92,15.59,14.72,8.98,28.28,19.69,43.39,28.04,30.07,16.65,62.59,22.54,96.42,22.63,10.86.05,15.01,4.15,15.01,14.91.05,33.49-.34,66.98-.1,100.48Z"/>
  </g>
  <g>
    <path class="cls-4" d="M587.79,181.06h-7.79v-44.9c0-3.55.22-7.89.65-13.02h-.19c-.75,3.02-1.42,5.18-2.01,6.49l-22.87,51.43h-3.83l-22.82-51.06c-.65-1.49-1.32-3.78-2.01-6.86h-.19c.25,2.68.37,7.05.37,13.11v44.8h-7.56v-66.92h10.36l20.53,46.67c1.59,3.58,2.61,6.25,3.08,8.03h.28c1.34-3.67,2.41-6.41,3.22-8.21l20.96-46.48h9.8v66.92Z"/>
    <path class="cls-4" d="M608.28,121.14c-1.37,0-2.54-.47-3.5-1.4-.96-.93-1.45-2.12-1.45-3.55s.48-2.62,1.45-3.57c.96-.95,2.13-1.42,3.5-1.42s2.59.47,3.57,1.42c.98.95,1.47,2.14,1.47,3.57s-.49,2.54-1.47,3.5c-.98.96-2.17,1.45-3.57,1.45ZM612.01,181.06h-7.65v-47.79h7.65v47.79Z"/>
    <path class="cls-4" d="M660.08,178.87c-3.67,2.21-8.03,3.31-13.07,3.31-6.81,0-12.31-2.22-16.5-6.65s-6.28-10.18-6.28-17.24c0-7.87,2.25-14.19,6.77-18.97,4.51-4.78,10.53-7.16,18.06-7.16,4.2,0,7.9.78,11.11,2.33v7.84c-3.55-2.49-7.34-3.73-11.39-3.73-4.88,0-8.89,1.75-12.02,5.25s-4.69,8.1-4.69,13.79,1.47,10.02,4.41,13.25c2.94,3.24,6.88,4.85,11.83,4.85,4.17,0,8.09-1.38,11.76-4.15v7.28Z"/>
    <path class="cls-4" d="M696.58,141.02c-1.34-1.03-3.27-1.54-5.79-1.54-3.27,0-6,1.54-8.19,4.62-2.19,3.08-3.29,7.28-3.29,12.6v24.36h-7.65v-47.79h7.65v9.85h.19c1.09-3.36,2.75-5.98,4.99-7.86,2.24-1.88,4.74-2.82,7.51-2.82,1.99,0,3.52.22,4.57.65v7.93Z"/>
    <path class="cls-4" d="M724.86,182.18c-7.06,0-12.7-2.23-16.92-6.7-4.22-4.46-6.32-10.38-6.32-17.76,0-8.03,2.19-14.3,6.58-18.81,4.39-4.51,10.31-6.77,17.78-6.77s12.69,2.19,16.68,6.58c4,4.39,6,10.47,6,18.25s-2.15,13.73-6.46,18.32c-4.31,4.59-10.09,6.88-17.34,6.88ZM725.42,138.59c-4.92,0-8.8,1.67-11.67,5.02-2.86,3.34-4.29,7.96-4.29,13.84s1.45,10.13,4.34,13.39c2.89,3.27,6.77,4.9,11.62,4.9s8.75-1.6,11.41-4.81c2.66-3.2,3.99-7.76,3.99-13.67s-1.33-10.58-3.99-13.81-6.46-4.85-11.41-4.85Z"/>
    <path class="cls-4" d="M757.99,179.33v-8.21c4.17,3.08,8.76,4.62,13.77,4.62,6.72,0,10.08-2.24,10.08-6.72,0-1.28-.29-2.36-.86-3.24s-1.35-1.67-2.33-2.36c-.98-.68-2.13-1.3-3.45-1.84-1.32-.54-2.75-1.11-4.27-1.7-2.12-.84-3.98-1.69-5.58-2.54-1.6-.86-2.94-1.82-4.01-2.89-1.07-1.07-1.88-2.29-2.43-3.66-.54-1.37-.82-2.97-.82-4.81,0-2.24.51-4.22,1.54-5.95,1.03-1.73,2.4-3.17,4.11-4.34,1.71-1.17,3.66-2.05,5.86-2.64,2.19-.59,4.46-.89,6.79-.89,4.14,0,7.84.72,11.11,2.15v7.75c-3.52-2.3-7.56-3.45-12.13-3.45-1.43,0-2.72.16-3.87.49s-2.14.79-2.96,1.38c-.83.59-1.46,1.3-1.91,2.12-.45.82-.68,1.73-.68,2.73,0,1.24.23,2.29.68,3.13.45.84,1.11,1.59,1.98,2.24s1.93,1.25,3.17,1.77c1.24.53,2.66,1.1,4.25,1.73,2.12.81,4.01,1.64,5.69,2.5,1.68.86,3.11,1.82,4.29,2.89,1.18,1.07,2.09,2.31,2.73,3.71.64,1.4.96,3.06.96,4.99,0,2.37-.52,4.42-1.56,6.16-1.04,1.74-2.43,3.19-4.18,4.34-1.74,1.15-3.75,2.01-6.02,2.57-2.27.56-4.65.84-7.14.84-4.92,0-9.18-.95-12.79-2.85Z"/>
    <path class="cls-4" d="M821.42,182.18c-7.06,0-12.7-2.23-16.92-6.7-4.22-4.46-6.32-10.38-6.32-17.76,0-8.03,2.19-14.3,6.58-18.81,4.39-4.51,10.31-6.77,17.78-6.77s12.69,2.19,16.68,6.58c4,4.39,6,10.47,6,18.25s-2.15,13.73-6.46,18.32c-4.31,4.59-10.09,6.88-17.34,6.88ZM821.98,138.59c-4.92,0-8.8,1.67-11.67,5.02-2.86,3.34-4.29,7.96-4.29,13.84s1.45,10.13,4.34,13.39c2.89,3.27,6.77,4.9,11.62,4.9s8.75-1.6,11.41-4.81c2.66-3.2,3.99-7.76,3.99-13.67s-1.33-10.58-3.99-13.81-6.46-4.85-11.41-4.85Z"/>
    <path class="cls-4" d="M881.06,117.03c-1.49-.84-3.19-1.26-5.09-1.26-5.35,0-8.03,3.38-8.03,10.13v7.37h11.2v6.53h-11.2v41.26h-7.61v-41.26h-8.17v-6.53h8.17v-7.75c0-5.01,1.45-8.97,4.34-11.88s6.5-4.36,10.83-4.36c2.33,0,4.18.28,5.55.84v6.91Z"/>
    <path class="cls-4" d="M909.53,180.59c-1.8,1-4.18,1.49-7.14,1.49-8.37,0-12.55-4.67-12.55-14v-28.28h-8.21v-6.53h8.21v-11.67l7.65-2.47v14.14h12.04v6.53h-12.04v26.93c0,3.21.54,5.49,1.63,6.86,1.09,1.37,2.89,2.05,5.41,2.05,1.93,0,3.59-.53,4.99-1.59v6.53Z"/>
  </g>
  <g>
    <path class="cls-4" d="M519.56,293.97v-66.92h18.48c23.58,0,35.38,10.87,35.38,32.62,0,10.33-3.27,18.63-9.82,24.9-6.55,6.27-15.32,9.4-26.3,9.4h-17.73ZM527.4,234.14v52.74h9.99c8.77,0,15.6-2.35,20.49-7.05,4.88-4.7,7.33-11.36,7.33-19.97,0-17.14-9.12-25.71-27.35-25.71h-10.45Z"/>
    <path class="cls-4" d="M623.96,271.99h-33.74c.12,5.32,1.56,9.43,4.29,12.32,2.74,2.89,6.5,4.34,11.29,4.34,5.38,0,10.33-1.77,14.84-5.32v7.19c-4.2,3.05-9.75,4.57-16.66,4.57s-12.06-2.17-15.91-6.51c-3.86-4.34-5.79-10.45-5.79-18.32,0-7.44,2.11-13.49,6.32-18.18,4.22-4.68,9.45-7.02,15.7-7.02s11.09,2.02,14.51,6.07c3.42,4.04,5.13,9.66,5.13,16.85v4.01ZM616.12,265.5c-.03-4.42-1.1-7.86-3.2-10.31-2.1-2.46-5.02-3.69-8.75-3.69s-6.67,1.29-9.19,3.87c-2.52,2.58-4.08,5.96-4.67,10.13h25.81Z"/>
    <path class="cls-4" d="M659.15,229.94c-1.49-.84-3.19-1.26-5.09-1.26-5.35,0-8.03,3.38-8.03,10.13v7.37h11.2v6.53h-11.2v41.26h-7.61v-41.26h-8.17v-6.53h8.17v-7.75c0-5.01,1.45-8.97,4.34-11.88s6.5-4.36,10.83-4.36c2.33,0,4.18.28,5.55.84v6.91Z"/>
    <path class="cls-4" d="M703.86,271.99h-33.74c.12,5.32,1.56,9.43,4.29,12.32,2.74,2.89,6.5,4.34,11.29,4.34,5.38,0,10.33-1.77,14.84-5.32v7.19c-4.2,3.05-9.75,4.57-16.66,4.57s-12.06-2.17-15.91-6.51c-3.86-4.34-5.79-10.45-5.79-18.32,0-7.44,2.11-13.49,6.32-18.18,4.22-4.68,9.45-7.02,15.7-7.02s11.09,2.02,14.51,6.07c3.42,4.04,5.13,9.66,5.13,16.85v4.01ZM696.02,265.5c-.03-4.42-1.1-7.86-3.2-10.31-2.1-2.46-5.02-3.69-8.75-3.69s-6.67,1.29-9.19,3.87c-2.52,2.58-4.08,5.96-4.67,10.13h25.81Z"/>
    <path class="cls-4" d="M755.1,293.97h-7.65v-27.25c0-10.14-3.7-15.21-11.11-15.21-3.83,0-6.99,1.44-9.5,4.32-2.5,2.88-3.76,6.51-3.76,10.9v27.25h-7.65v-47.79h7.65v7.93h.19c3.61-6.04,8.84-9.05,15.68-9.05,5.23,0,9.22,1.69,11.99,5.06,2.77,3.38,4.15,8.25,4.15,14.63v29.21Z"/>
    <path class="cls-4" d="M810.31,293.97h-7.65v-8.12h-.19c-3.55,6.16-9.02,9.24-16.43,9.24-6,0-10.8-2.14-14.4-6.42-3.59-4.28-5.39-10.1-5.39-17.48,0-7.9,1.99-14.23,5.97-18.99,3.98-4.76,9.29-7.14,15.91-7.14s11.34,2.58,14.33,7.75h.19v-29.59h7.65v70.75ZM802.66,272.36v-7.05c0-3.86-1.28-7.12-3.83-9.8-2.55-2.68-5.79-4.01-9.71-4.01-4.67,0-8.34,1.71-11.01,5.13-2.68,3.42-4.01,8.15-4.01,14.19,0,5.51,1.28,9.85,3.85,13.04,2.57,3.19,6.01,4.78,10.34,4.78s7.72-1.54,10.38-4.62,3.99-6.97,3.99-11.67Z"/>
    <path class="cls-4" d="M864.21,271.99h-33.74c.12,5.32,1.56,9.43,4.29,12.32,2.74,2.89,6.5,4.34,11.29,4.34,5.38,0,10.33-1.77,14.84-5.32v7.19c-4.2,3.05-9.75,4.57-16.66,4.57s-12.06-2.17-15.91-6.51c-3.86-4.34-5.79-10.45-5.79-18.32,0-7.44,2.11-13.49,6.32-18.18,4.22-4.68,9.45-7.02,15.7-7.02s11.09,2.02,14.51,6.07c3.42,4.04,5.13,9.66,5.13,16.85v4.01ZM856.37,265.5c-.03-4.42-1.1-7.86-3.2-10.31-2.1-2.46-5.02-3.69-8.75-3.69s-6.67,1.29-9.19,3.87c-2.52,2.58-4.08,5.96-4.67,10.13h25.81Z"/>
    <path class="cls-4" d="M900.71,253.93c-1.34-1.03-3.27-1.54-5.79-1.54-3.27,0-6,1.54-8.19,4.62-2.19,3.08-3.29,7.28-3.29,12.6v24.36h-7.65v-47.79h7.65v9.85h.19c1.09-3.36,2.75-5.98,4.99-7.86,2.24-1.88,4.74-2.82,7.51-2.82,1.99,0,3.52.22,4.57.65v7.93Z"/>
  </g>
</svg>